Coordinates
version=1
nRows=8
nColumns=33
inDegrees=yes

Units are S.I. units (second, meters, Newtons, ...)
Angles are in degrees.

endheader
time	ground_thorax_rot_x	ground_thorax_rot_y	ground_thorax_rot_z	ground_thorax_tx	ground_thorax_ty	ground_thorax_tz	clav_prot_r	clav_elev_r	scapula_abduction_r	scapula_elevation_r	scapula_upward_rot_r	scapula_winging_r	shoulder_elv_r	plane_of_elev_r	axial_rot_r	elbow_flexion_r	pro_sup_r	wrist_flex_r	wrist_dev_r	clav_prot_l	clav_elev_l	scapula_abduction_l	scapula_elevation_l	scapula_upward_rot_l	scapula_winging_l	shoulder_elv_l	plane_of_elev_l	axial_rot_l	elbow_flexion_l	pro_sup_l	wrist_flex_l	wrist_dev_l
      2.06000000	     38.46414290	      9.03615739	     13.70780619	   -214.33877448	    814.64043847	      4.56779344	     15.61438529	     37.92364585	     39.55337049	     45.00000000	    -45.00000000	   2072.85212072	  -1908.53888440	    148.52225002	   -115.54576121	    744.95797356	    160.37333010	     13.15925534	      5.47039614	     10.47136962	    -45.00000000	    -37.83980680	     45.00000000	    -42.60911885	  -1702.41004733	  -1726.31277966	     23.52243104	    -20.46160473	   1446.27323592	   -331.79825166	      6.89265442	    -23.00923161
      2.07000000	     38.48271679	      8.89015136	     13.60900345	   -212.64223010	    815.15213447	      4.51950399	     15.68073340	     37.93418536	     39.71951421	     45.00000000	    -45.00000000	   2072.82161753	  -1908.45142298	    148.36413475	   -116.05122124	    744.97881483	    161.11134628	     13.09318195	      5.50879555	     10.36957789	    -45.00000000	    -37.98691573	     45.00000000	    -42.04046785	  -1702.47881948	  -1726.27488509	     23.55094404	    -20.56698644	   1446.37394608	   -332.09810937	      6.90288378	    -22.97060281
      2.08000000	     38.51179097	      8.74155889	     13.44494285	   -210.78006886	    815.69081337	      4.47851499	     15.79378720	     37.99724195	     39.90058241	     45.00000000	    -45.00000000	   2072.81427647	  -1908.39276191	    148.23367080	   -116.60520228	    744.99193779	    161.98644866	     13.02063357	      5.52755356	     10.34512620	    -45.00000000	    -38.24627887	     45.00000000	    -41.27274034	  -1702.57843249	  -1726.29228641	     23.57132776	    -20.54325209	   1446.45370434	   -332.41010473	      6.94549970	    -22.94212924
      2.09000000	     38.51866269	      8.59187962	     13.28031848	   -208.74923885	    816.25208862	      4.44683925	     15.90113367	     38.06404272	     40.09666960	     45.00000000	    -45.00000000	   2072.81794933	  -1908.33253490	    148.09285248	   -117.24433427	    745.02850333	    162.98131464	     12.93200118	      5.54064446	     10.33536710	    -45.00000000	    -38.49593571	     45.00000000	    -40.44317544	  -1702.63822637	  -1726.26082215	     23.59940445	    -20.43584568	   1446.57206552	   -332.73780358	      7.00475449	    -22.92187564
      2.10000000	     38.51765924	      8.44003847	     13.14497811	   -206.54242416	    816.83059308	      4.42721077	     16.20105796	     38.23014604	     40.35793703	     45.00000000	    -45.00000000	   2072.90504194	  -1908.26215311	    148.02826394	   -117.84287481	    745.02226119	    164.17688961	     12.83080019	      5.56292053	     10.15246738	    -45.00000000	    -38.80736013	     45.00000000	    -39.39344243	  -1702.71295381	  -1726.25909280	     23.48115800	    -20.24007077	   1446.74147312	   -333.13021352	      7.11602007	    -22.92738595
      2.11000000	     38.54758864	      8.29071961	     13.02493758	   -204.16067460	    817.41935318	      4.42232523	     16.26220711	     38.24524306	     40.60278161	     45.00000000	    -45.00000000	   2072.94334110	  -1908.14883106	    147.88204718	   -118.56719627	    745.00337387	    165.44274239	     12.71942959	      5.60085232	     10.13938772	    -45.00000000	    -39.07154758	     45.00000000	    -38.56116156	  -1702.77742855	  -1726.22841054	     23.52253492	    -20.12328723	   1446.85649411	   -333.52479458	      7.24630669	    -22.90376872
      2.12000000	     38.56668768	      8.20218272	     12.84967894	   -201.59651463	    818.00893045	      4.43528202	     16.09959907	     38.16360321	     40.77179421	     45.00000000	    -45.00000000	   2072.91849920	  -1908.05519511	    147.66507111	   -119.41216501	    745.05850063	    166.65325793	     12.59009863	      5.61427682	     10.29499172	    -45.00000000	    -39.32446295	     45.00000000	    -37.98846835	  -1702.90331739	  -1726.23225604	     23.66562887	    -20.10878696	   1446.98870618	   -333.90511365	      7.35078192	    -22.84806124
      2.13000000	     38.58494766	      7.98384260	     12.69093917	   -198.85550521	    818.59696915	      4.46667499	     16.42856662	     38.31773285	     41.15755139	     45.00000000	    -45.00000000	   2073.00059368	  -1907.99057873	    147.54398837	   -120.19300806	    744.97574070	    168.05687229	     12.45732084	      5.66026236	     10.11741039	    -45.00000000	    -39.62578612	     45.00000000	    -36.77609399	  -1702.94797042	  -1726.20278162	     23.57101199	    -20.11327967	   1447.15601140	   -334.41267646	      7.53300984	    -22.81520519
